<?xml version="1.0" encoding="UTF-8" ?>
<!DOCTYPE svg PUBLIC "-//W3C//DTD SVG 1.1//EN" "http://www.w3.org/Graphics/SVG/1.1/DTD/svg11.dtd">
<svg width="539pt" height="538pt" viewBox="0 0 539 538" version="1.1" xmlns="http://www.w3.org/2000/svg">
<g id="#ffffffff">
</g>
<g id="#00ff29ff">
<path fill="#00ff29" stroke="#00ff29" stroke-width="0.09375" opacity="1.00" d=" M 258.84 78.70 C 278.97 73.72 301.60 82.59 313.36 99.58 C 327.64 119.34 326.51 148.72 309.67 166.63 C 303.09 174.45 293.32 178.26 285.42 184.42 C 279.82 190.04 281.93 198.84 279.73 205.85 C 276.58 219.12 266.35 229.69 254.06 235.10 C 195.70 265.96 137.59 297.29 79.33 328.34 C 71.96 332.50 63.30 336.64 60.12 345.10 C 54.38 357.38 62.35 373.10 75.01 377.00 C 89.93 378.72 105.02 378.25 120.00 377.49 C 129.27 376.96 137.04 370.55 142.34 363.36 C 149.82 351.59 155.43 337.30 168.32 330.31 C 180.37 324.00 195.99 329.83 203.07 340.91 C 218.81 364.81 223.72 393.73 237.26 418.71 C 240.31 423.76 243.48 430.08 249.83 431.34 C 253.58 431.95 257.99 432.78 261.27 430.32 C 269.05 423.37 273.39 413.62 277.23 404.14 C 287.48 377.29 296.81 350.10 307.32 323.35 C 310.91 315.41 304.59 307.09 306.87 298.99 C 310.34 289.09 322.99 284.16 332.40 288.52 C 341.91 293.02 345.97 306.30 340.15 315.20 C 337.17 321.13 329.32 322.76 327.24 329.29 C 316.97 356.43 307.54 383.87 296.91 410.87 C 291.51 425.61 283.51 440.19 270.31 449.28 C 262.66 453.78 253.10 454.47 244.59 452.41 C 235.07 449.40 227.38 442.16 222.14 433.84 C 204.75 407.22 201.11 374.09 182.98 347.85 C 179.69 348.93 175.81 349.61 173.66 352.62 C 164.71 364.93 159.04 380.19 146.25 389.29 C 133.83 398.33 117.92 400.01 102.99 400.04 C 89.91 399.92 76.08 401.06 63.93 395.20 C 50.16 389.37 40.33 375.87 37.88 361.26 C 34.80 343.02 44.34 323.40 60.68 314.69 C 121.81 281.74 183.07 249.03 244.38 216.41 C 249.61 213.24 256.10 210.43 258.25 204.18 C 260.86 196.44 259.94 187.88 263.31 180.33 C 265.77 175.16 268.89 170.02 273.66 166.68 C 280.20 161.78 288.35 159.12 293.85 152.86 C 305.51 140.61 305.09 118.98 292.41 107.59 C 278.95 93.34 252.59 97.20 242.98 114.01 C 239.00 121.12 239.09 129.60 236.04 137.03 C 231.41 144.12 218.05 141.64 217.43 132.65 C 215.42 107.73 234.60 83.75 258.84 78.70 M 322.56 298.52 C 318.12 299.52 317.26 304.59 316.27 308.29 C 318.46 310.14 320.36 312.49 322.98 313.76 C 326.20 313.00 330.07 311.78 331.47 308.45 C 333.75 303.29 328.08 296.34 322.56 298.52 Z" />
<path fill="#00ff29" stroke="#00ff29" stroke-width="0.09375" opacity="1.00" d=" M 289.05 229.97 C 288.58 222.45 297.94 216.91 304.36 220.64 C 354.38 247.24 404.32 274.02 454.32 300.68 C 465.51 306.64 477.15 311.99 487.27 319.72 C 499.69 329.98 504.93 347.38 501.96 363.00 C 499.11 379.13 486.57 393.38 470.60 397.50 C 462.98 399.89 454.87 400.32 446.95 399.82 C 442.40 399.47 439.71 395.20 437.57 391.68 C 433.28 395.05 429.47 399.55 424.00 400.96 C 415.71 402.23 407.29 401.86 398.94 402.19 C 395.86 401.85 394.98 405.38 393.05 407.05 C 386.38 415.03 372.50 415.18 365.75 407.25 C 361.25 402.84 360.46 396.04 361.23 390.09 C 363.50 379.46 376.66 372.79 386.53 377.54 C 391.13 380.00 394.49 384.13 397.89 387.98 C 404.56 387.84 411.26 388.28 417.92 387.69 C 423.50 386.51 425.87 379.87 431.40 378.58 C 442.88 378.07 454.54 379.32 465.87 376.82 C 478.95 372.61 486.30 355.60 479.51 343.40 C 475.14 334.07 464.92 330.14 456.37 325.62 C 404.15 297.83 351.92 270.04 299.71 242.22 C 295.03 239.56 288.29 236.45 289.05 229.97 M 372.30 397.73 C 374.35 402.79 382.08 403.55 385.30 399.32 C 386.48 396.68 386.60 393.74 387.14 390.95 C 385.24 389.79 383.35 388.60 381.29 387.76 C 375.79 385.07 369.76 392.62 372.30 397.73 Z" />
<path fill="#00ff29" stroke="#00ff29" stroke-width="0.09375" opacity="1.00" d=" M 404.33 332.38 C 415.00 329.78 426.63 338.88 426.48 349.92 C 427.62 360.57 417.44 370.11 406.95 369.17 C 399.64 369.69 394.83 363.40 390.52 358.50 C 380.01 358.25 369.45 357.22 358.95 358.13 C 354.91 358.42 353.02 362.54 351.74 365.84 C 345.98 381.41 340.41 397.06 334.66 412.64 C 332.75 416.85 336.06 420.66 337.50 424.42 C 340.34 429.75 339.13 436.15 336.13 441.13 C 330.74 449.44 318.03 452.13 310.09 445.93 C 300.55 439.92 299.18 424.24 308.18 417.17 C 312.74 413.37 320.48 412.86 322.27 406.32 C 327.64 390.50 333.44 374.82 339.17 359.13 C 341.78 351.70 348.45 345.53 356.36 344.45 C 367.60 343.68 378.89 343.43 390.14 344.03 C 393.99 339.30 397.56 332.98 404.33 332.38 M 406.26 343.32 C 401.75 344.45 398.89 350.43 401.58 354.44 C 403.61 358.40 409.35 359.74 412.77 356.75 C 418.70 352.46 413.63 340.84 406.26 343.32 M 318.28 423.36 C 314.39 424.72 311.62 429.49 313.59 433.43 C 315.41 439.21 324.66 439.83 327.20 434.27 C 330.64 428.80 324.30 421.15 318.28 423.36 Z" />
<path fill="#00ff29" stroke="#00ff29" stroke-width="0.09375" opacity="1.00" d=" M 402.68 429.70 C 407.43 420.64 418.82 414.95 428.58 419.44 C 441.97 425.35 442.94 447.19 429.08 453.07 C 419.34 458.57 408.50 452.48 402.65 444.31 C 391.08 444.29 379.50 444.34 367.94 443.98 C 359.78 443.78 352.60 437.70 349.65 430.33 C 347.87 425.89 352.23 420.78 356.82 421.27 C 361.38 422.43 363.81 426.94 367.65 429.28 C 379.26 430.82 391.01 429.92 402.68 429.70 M 418.56 429.54 C 414.26 430.73 413.30 435.53 412.29 439.24 C 414.40 441.24 416.61 443.12 418.90 444.91 C 422.19 443.67 426.76 442.89 427.74 438.91 C 429.74 433.62 424.02 427.10 418.56 429.54 Z" />
</g>
</svg>
